<svg id="Warstwa_1" data-name="Warstwa 1" xmlns="http://www.w3.org/2000/svg" viewBox="0 0 790 222"><defs><style>.cls-1{fill:#f2f2f2;}.cls-2{fill:#f9d6cd;}.cls-3{fill:#ebb7aa;}.cls-4{fill:#f1c77d;}.cls-5{fill:#eba766;}.cls-6{fill:#4949e7;}.cls-7{fill:#202095;}.cls-8{fill:#df9380;}.cls-9{fill:#e490b7;}.cls-10{fill:#dd636e;}.cls-11{fill:#f4dd45;}</style></defs><title>Marta</title><rect class="cls-1" width="790" height="222" rx="15"/><path d="M133,166.33h-3.13V155.78h-9.65v10.55h-3.13v-23h3.13v9.72h9.65v-9.72H133Z" transform="translate(-5 -5)"/><path d="M143.71,151.21h-5.22v-2.53h8.32v15.1h5.25v2.55H137.91v-2.55h5.8Zm1.08-9.93a2.34,2.34,0,0,1,1,.19,2.31,2.31,0,0,1,.76.51,2.46,2.46,0,0,1,.51.77,2.52,2.52,0,0,1,0,1.87,2.35,2.35,0,0,1-.51.77,2.19,2.19,0,0,1-.76.52,2.34,2.34,0,0,1-1,.19,2.3,2.3,0,0,1-.95-.19,2.14,2.14,0,0,1-.77-.52,2.72,2.72,0,0,1-.51-.77,2.52,2.52,0,0,1,0-1.87,2.87,2.87,0,0,1,.51-.77,2.25,2.25,0,0,1,.77-.51A2.3,2.3,0,0,1,144.79,141.28Z" transform="translate(-5 -5)"/><path d="M158.87,169.93a6.75,6.75,0,0,0,1.74-.15,5,5,0,0,0,1.48-.58,3.12,3.12,0,0,0,1-.94,2.18,2.18,0,0,0,.39-1.28,2.41,2.41,0,0,0-.26-1.19,5.73,5.73,0,0,0-.57-.85,6.66,6.66,0,0,1-.57-.82,2.37,2.37,0,0,1-.26-1.18,2.24,2.24,0,0,1,.15-.78,2,2,0,0,1,.43-.73,2.13,2.13,0,0,1,.73-.55,2.52,2.52,0,0,1,1.07-.21,2.84,2.84,0,0,1,1.18.25,2.81,2.81,0,0,1,1,.79,4.1,4.1,0,0,1,.68,1.32,6,6,0,0,1,.26,1.86,7.42,7.42,0,0,1-.54,2.8,6.8,6.8,0,0,1-1.6,2.38,7.62,7.62,0,0,1-2.65,1.66,10.25,10.25,0,0,1-3.7.61Z" transform="translate(-5 -5)"/><path d="M202.58,146h-5.29v-2.63H211V146h-5.29v17.67H211v2.67H197.29v-2.67h5.29Z" transform="translate(-5 -5)"/><path d="M248,166.33l-.07-2.37a9.46,9.46,0,0,1-2.92,2,7.74,7.74,0,0,1-3.12.64,7.63,7.63,0,0,1-2.59-.39,4.87,4.87,0,0,1-1.76-1.06,4,4,0,0,1-1-1.59,5.85,5.85,0,0,1-.33-2,4.93,4.93,0,0,1,2-4.16A9.58,9.58,0,0,1,244,156h3.66v-1.55a3.25,3.25,0,0,0-1-2.5,4.33,4.33,0,0,0-3.06-.94,13.12,13.12,0,0,0-2.94.33,20.26,20.26,0,0,0-3,.95v-2.76c.39-.14.82-.28,1.29-.41s1-.26,1.5-.36,1.08-.19,1.66-.26a16.61,16.61,0,0,1,1.74-.09,10.72,10.72,0,0,1,2.88.35,5.81,5.81,0,0,1,2.17,1.07,4.64,4.64,0,0,1,1.36,1.81,6.34,6.34,0,0,1,.48,2.57v12.16Zm-.33-8h-3.88a7.1,7.1,0,0,0-2,.23,3.67,3.67,0,0,0-1.36.65,2.56,2.56,0,0,0-.78,1,3.27,3.27,0,0,0-.25,1.32,3.19,3.19,0,0,0,.15,1,2.3,2.3,0,0,0,.51.83,2.48,2.48,0,0,0,.92.57,3.91,3.91,0,0,0,1.37.21,5.94,5.94,0,0,0,2.42-.64,12,12,0,0,0,2.87-2Z" transform="translate(-5 -5)"/><path d="M269.05,166.33V153.66a10.16,10.16,0,0,0-.07-1.36,2.91,2.91,0,0,0-.19-.83.89.89,0,0,0-.33-.43,1,1,0,0,0-.5-.13,1,1,0,0,0-.65.22,2.85,2.85,0,0,0-.65.68,12,12,0,0,0-.75,1.26c-.28.52-.6,1.16-1,1.92v11.34h-2.79V154c0-.64,0-1.17-.06-1.56a3.61,3.61,0,0,0-.2-.94.87.87,0,0,0-.34-.45,1,1,0,0,0-.51-.13,1.11,1.11,0,0,0-.6.18,2.84,2.84,0,0,0-.62.63A11,11,0,0,0,259,153c-.28.53-.61,1.2-1,2v11.34h-2.81V148.68h2.34l.14,3.36a14.78,14.78,0,0,1,.89-1.71,5.69,5.69,0,0,1,.88-1.13,2.92,2.92,0,0,1,1-.63,3,3,0,0,1,1.15-.2,2.59,2.59,0,0,1,2.16.93,4.62,4.62,0,0,1,.74,2.88c.28-.61.56-1.15.83-1.63a6,6,0,0,1,.87-1.19,3.33,3.33,0,0,1,1-.74,3.08,3.08,0,0,1,1.3-.25q3.31,0,3.32,5.11v12.85Z" transform="translate(-5 -5)"/><path d="M312.17,166.33h-3.06L308.65,152l-.19-5.5-1.08,3.2L304,158.84h-2.16l-3.24-8.79-1.07-3.55-.07,5.75-.4,14.08h-3l1.13-23h3.71L302,152l1,2.92,1-2.92,3.25-8.64h3.82Z" transform="translate(-5 -5)"/><path d="M327.18,166.33l-.07-2.37a9.49,9.49,0,0,1-2.93,2,7.74,7.74,0,0,1-3.12.64,7.53,7.53,0,0,1-2.58-.39,4.83,4.83,0,0,1-1.77-1.06,4.26,4.26,0,0,1-1-1.59,5.85,5.85,0,0,1-.33-2,4.93,4.93,0,0,1,2-4.16,9.6,9.6,0,0,1,5.85-1.5h3.65v-1.55a3.25,3.25,0,0,0-1-2.5,4.33,4.33,0,0,0-3.06-.94,13.19,13.19,0,0,0-2.94.33,20.26,20.26,0,0,0-3,.95v-2.76c.39-.14.82-.28,1.29-.41s1-.26,1.51-.36,1.07-.19,1.65-.26a16.61,16.61,0,0,1,1.74-.09,10.67,10.67,0,0,1,2.88.35,5.73,5.73,0,0,1,2.17,1.07,4.64,4.64,0,0,1,1.36,1.81,6.34,6.34,0,0,1,.48,2.57v12.16Zm-.34-8H323a7.15,7.15,0,0,0-2,.23,3.54,3.54,0,0,0-1.35.65,2.49,2.49,0,0,0-.79,1,3.27,3.27,0,0,0-.25,1.32,2.92,2.92,0,0,0,.16,1,2.06,2.06,0,0,0,.51.83,2.44,2.44,0,0,0,.91.57,4,4,0,0,0,1.37.21,5.94,5.94,0,0,0,2.42-.64,12,12,0,0,0,2.87-2Z" transform="translate(-5 -5)"/><path d="M336.35,148.68h2.8l.09,3.25a11.32,11.32,0,0,1,3.08-2.72,6.29,6.29,0,0,1,3.07-.84,5,5,0,0,1,4.15,1.77,7.89,7.89,0,0,1,1.31,5.27h-3.09a5.7,5.7,0,0,0-.68-3.36A2.42,2.42,0,0,0,345,151a3.91,3.91,0,0,0-1.24.22,5.1,5.1,0,0,0-1.28.7,12.36,12.36,0,0,0-1.4,1.24c-.49.51-1,1.12-1.58,1.83v11.34h-3.1Z" transform="translate(-5 -5)"/><path d="M369.65,166.08a13.8,13.8,0,0,1-2.15.38,20.92,20.92,0,0,1-2.25.12,7.09,7.09,0,0,1-5-1.51,6,6,0,0,1-1.63-4.61v-9.21h-4.94v-2.57h4.94v-4.85l3.06-.79v5.64h7.93v2.57h-7.93v9a3.67,3.67,0,0,0,1,2.84,4.21,4.21,0,0,0,3,.94,13.7,13.7,0,0,0,1.84-.13,19.86,19.86,0,0,0,2.1-.41Z" transform="translate(-5 -5)"/><path d="M386.56,166.33l-.07-2.37a9.61,9.61,0,0,1-2.93,2,7.74,7.74,0,0,1-3.12.64,7.63,7.63,0,0,1-2.59-.39,4.87,4.87,0,0,1-1.76-1.06,4.26,4.26,0,0,1-1-1.59,5.85,5.85,0,0,1-.33-2,4.93,4.93,0,0,1,2-4.16,9.6,9.6,0,0,1,5.85-1.5h3.65v-1.55a3.25,3.25,0,0,0-1-2.5,4.33,4.33,0,0,0-3.06-.94,13.19,13.19,0,0,0-2.94.33,20.26,20.26,0,0,0-3,.95v-2.76c.39-.14.82-.28,1.29-.41s1-.26,1.5-.36,1.08-.19,1.66-.26a16.61,16.61,0,0,1,1.74-.09,10.72,10.72,0,0,1,2.88.35,5.73,5.73,0,0,1,2.17,1.07,4.64,4.64,0,0,1,1.36,1.81,6.34,6.34,0,0,1,.48,2.57v12.16Zm-.34-8h-3.88a7.15,7.15,0,0,0-2,.23,3.67,3.67,0,0,0-1.36.65,2.56,2.56,0,0,0-.78,1,3.27,3.27,0,0,0-.25,1.32,2.92,2.92,0,0,0,.16,1,2.06,2.06,0,0,0,.51.83,2.36,2.36,0,0,0,.91.57,3.91,3.91,0,0,0,1.37.21,5.94,5.94,0,0,0,2.42-.64,12,12,0,0,0,2.87-2Z" transform="translate(-5 -5)"/><path class="cls-2" d="M632.19,218.4h-7.82l-4.12-9.2,4.12-8H645.3v4.14A13.11,13.11,0,0,1,632.19,218.4Z" transform="translate(-5 -5)"/><path class="cls-3" d="M645.3,201.15v4.15a13.11,13.11,0,0,1-13.11,13.1h-7.82l-4.12-6h11.94a13.1,13.1,0,0,0,13-11.22Z" transform="translate(-5 -5)"/><path class="cls-4" d="M543.92,13.6h15.39a59.22,59.22,0,0,1,59.22,59.23v96.79H484.7V72.83A59.22,59.22,0,0,1,543.92,13.6Z" transform="translate(-5 -5)"/><path class="cls-5" d="M548.63,13.6c-12.72,0-23,26.52-23,59.23v96.79H484.7V72.83A59.22,59.22,0,0,1,543.92,13.6Z" transform="translate(-5 -5)"/><path class="cls-6" d="M537.9,168h-7.81a26.41,26.41,0,0,0-25.87,21.1l-6,29.31H605l-6-29.31A26.41,26.41,0,0,0,573.12,168h-7.81" transform="translate(-5 -5)"/><path class="cls-7" d="M539.53,168c-7,0-13.1,8.82-14.52,21.1l-3.38,29.31H498.21l6-29.31A26.41,26.41,0,0,1,530.09,168Z" transform="translate(-5 -5)"/><path class="cls-2" d="M565.31,145.12V168a13.7,13.7,0,1,1-27.39,0V145.12Z" transform="translate(-5 -5)"/><path class="cls-3" d="M556.09,180.94A13.72,13.72,0,0,1,537.92,168V145.12h9V168a13.69,13.69,0,0,0,9.22,12.95Z" transform="translate(-5 -5)"/><path class="cls-3" d="M494.41,126.08A17.89,17.89,0,0,1,477,104.25c2.32-10.28,17.44-8.59,17.44,1.94H608.83c0-10.53,15.12-12.22,17.44-1.94a17.89,17.89,0,0,1-17.44,21.83" transform="translate(-5 -5)"/><path class="cls-8" d="M494.41,114.94a3.1,3.1,0,0,1-2.53-1.31c-.07-.1-2.86-3.89-5.79-2.71a3.09,3.09,0,0,1-2.31-5.73,9.93,9.93,0,0,1,9.69,1.44,15.56,15.56,0,0,1,3.47,3.45,3.09,3.09,0,0,1-2.53,4.86Z" transform="translate(-5 -5)"/><path class="cls-8" d="M608.83,114.93a3.09,3.09,0,0,1-2.54-4.85,16,16,0,0,1,3.48-3.45,9.93,9.93,0,0,1,9.69-1.44,3.09,3.09,0,1,1-2.32,5.73c-2.95-1.19-5.76,2.67-5.79,2.71A3.08,3.08,0,0,1,608.83,114.93Z" transform="translate(-5 -5)"/><path class="cls-3" d="M537.92,145.12h27.39v21.07H537.92Z" transform="translate(-5 -5)"/><path class="cls-2" d="M608.83,85.82v31.43a41.7,41.7,0,0,1-41.7,41.69h-31a41.69,41.69,0,0,1-41.69-41.69V86.18a171.22,171.22,0,0,0,27.39-3.56c21.57-4.38,46.33-12.67,57.84-24.19,0,0,11.4,23.29,29.19,27.39Z" transform="translate(-5 -5)"/><path class="cls-3" d="M563.5,158.94H536.1a41.69,41.69,0,0,1-41.69-41.69V86.18a171.22,171.22,0,0,0,27.39-3.56v34.63A41.7,41.7,0,0,0,563.5,158.94Z" transform="translate(-5 -5)"/><ellipse class="cls-9" cx="580.32" cy="115.21" rx="9.36" ry="5.69"/><ellipse class="cls-9" cx="512.92" cy="115.21" rx="9.36" ry="5.69"/><path class="cls-3" d="M557.19,113.83H546.05a3.09,3.09,0,1,1,0-6.18h11.14a3.09,3.09,0,0,1,0,6.18Z" transform="translate(-5 -5)"/><path class="cls-10" d="M551.62,135.11a14.84,14.84,0,0,1-13.7-9.09,3.09,3.09,0,1,1,5.69-2.4,8.69,8.69,0,0,0,16,0,3.09,3.09,0,1,1,5.69,2.4,14.83,14.83,0,0,1-13.69,9.09Z" transform="translate(-5 -5)"/><path class="cls-6" d="M624.37,201.15V218.4h-33a7.43,7.43,0,0,1-7.3-6,7.33,7.33,0,0,1-.14-1.41v-9.81Z" transform="translate(-5 -5)"/><path class="cls-7" d="M624.37,212.37v6h-33a7.43,7.43,0,0,1-7.3-6Z" transform="translate(-5 -5)"/><path class="cls-2" d="M471,218.4h7.82L483,207l-4.12-5.86H457.91v4.15A13.11,13.11,0,0,0,471,218.4Z" transform="translate(-5 -5)"/><path class="cls-3" d="M457.91,201.15v4.15A13.11,13.11,0,0,0,471,218.4h7.82l4.12-6H471a13.1,13.1,0,0,1-13-11.22Z" transform="translate(-5 -5)"/><path class="cls-6" d="M478.84,201.15V218.4h33a7.43,7.43,0,0,0,7.3-6,7.33,7.33,0,0,0,.14-1.41v-9.81Z" transform="translate(-5 -5)"/><path class="cls-7" d="M519.29,204.87V211a7.33,7.33,0,0,1-.14,1.41,7.43,7.43,0,0,1-7.3,6h-33v-6.09h33a7.43,7.43,0,0,0,7.3-6A7.33,7.33,0,0,0,519.29,204.87Z" transform="translate(-5 -5)"/><path class="cls-8" d="M577.49,112.64a14.85,14.85,0,0,1-13.7-9.09,3.09,3.09,0,1,1,5.7-2.4,8.68,8.68,0,0,0,16,0,3.09,3.09,0,0,1,5.7,2.4,14.83,14.83,0,0,1-13.7,9.09Z" transform="translate(-5 -5)"/><path class="cls-8" d="M525.74,112.64a14.82,14.82,0,0,1-13.69-9.09,3.09,3.09,0,1,1,5.69-2.4,8.68,8.68,0,0,0,16,0,3.09,3.09,0,0,1,5.7,2.4,14.82,14.82,0,0,1-13.7,9.09Z" transform="translate(-5 -5)"/><path class="cls-11" d="M633.51,32.9a3.09,3.09,0,1,0,0-6.18h-6.78V20a3.09,3.09,0,1,0-6.18,0v6.77h-6.78a3.09,3.09,0,0,0,0,6.18h6.78v6.78a3.09,3.09,0,1,0,6.18,0V32.9Z" transform="translate(-5 -5)"/><path class="cls-11" d="M471.83,80.59h-6.78V73.82a3.09,3.09,0,0,0-6.18,0v6.77H452.1a3.09,3.09,0,0,0,0,6.18h6.77v6.78a3.09,3.09,0,0,0,6.18,0V86.77h6.78a3.09,3.09,0,1,0,0-6.18Z" transform="translate(-5 -5)"/><path class="cls-11" d="M649.9,154h-6.77v-6.78a3.09,3.09,0,0,0-6.18,0V154h-6.78a3.09,3.09,0,1,0,0,6.18H637V167a3.09,3.09,0,0,0,6.18,0v-6.78h6.77a3.09,3.09,0,1,0,0-6.18Z" transform="translate(-5 -5)"/></svg>