<?xml version="1.0"?>
<svg xmlns="http://www.w3.org/2000/svg" id="Capa_1" enable-background="new 0 0 496.998 496.998" height="512px" viewBox="0 0 496.998 496.998" width="512px" class=""><g><g><path d="m445.537 496.998h-18.987l-10.003-22.32 10.003-19.545h50.79v10.061c-.001 17.565-14.239 31.804-31.803 31.804z" fill="#ffcbbe" data-original="#FFCBBE" class="" data-old_color="#ffcbbe" style="fill:#F9D6CD"/><path d="m477.336 455.138v10.06c0 17.56-14.24 31.8-31.8 31.8h-18.987l-10.003-14.63h28.99c16.01 0 29.26-11.83 31.47-27.23z" fill="#eaac9d" data-original="#EAAC9D" class="active-path" style="fill:#EBB7AA" data-old_color="#eaac9d"/><path d="m231.322.003h37.343c79.377 0 143.724 64.347 143.724 143.724v234.885h-324.791v-234.885c0-79.377 64.347-143.724 143.724-143.724z" fill="#544f57" data-original="#544F57" class="" style="fill:#F1C77D" data-old_color="#544f57"/><path d="m242.74 0c-30.85 0-55.85 64.35-55.85 143.73v234.882h-99.29v-234.882c0-79.38 64.35-143.73 143.72-143.73z" fill="#454045" data-original="#454045" class="" style="fill:#EBA766" data-old_color="#454045"/><path d="m216.7 374.668h-18.953c-30.421 0-56.647 21.39-62.764 51.19l-14.603 71.141h259.173l-14.603-71.141c-6.117-29.799-32.344-51.19-62.764-51.19h-18.953" fill="#e7ecf1" data-original="#E7ECF1" class="" style="fill:#4949E7" data-old_color="#e7ecf1"/><path d="m220.663 374.668c-17.08 0-31.8 21.39-35.23 51.19l-8.2 71.14h-56.85l14.6-71.14c6.12-29.8 32.35-51.19 62.77-51.19z" fill="#c6d0da" data-original="#C6D0DA" class="" style="fill:#202095" data-old_color="#c6d0da"/><path d="m283.233 319.17v55.5c0 18.35-14.88 33.23-33.23 33.23-18.36 0-33.24-14.88-33.24-33.23v-55.5z" fill="#ffcbbe" data-original="#FFCBBE" class="" data-old_color="#ffcbbe" style="fill:#F9D6CD"/><path d="m260.855 406.088c-3.4 1.17-7.05 1.81-10.85 1.81-18.36 0-33.24-14.88-33.24-33.23v-55.5h21.7v55.5c0 14.56 9.36 26.93 22.39 31.42z" fill="#eaac9d" data-original="#EAAC9D" class="active-path" style="fill:#EBB7AA" data-old_color="#eaac9d"/><path d="m111.165 272.956c-23.961 0-43.386-19.425-43.386-43.386 0-3.298.368-6.51 1.065-9.597 5.628-24.927 42.321-20.838 42.321 4.716h277.67c0-25.554 36.693-29.643 42.321-4.716.697 3.087 1.065 6.299 1.065 9.597 0 23.961-19.425 43.386-43.386 43.386" fill="#eaac9d" data-original="#EAAC9D" class="active-path" style="fill:#EBB7AA" data-old_color="#eaac9d"/><path d="m111.172 245.929c-2.356 0-4.676-1.108-6.135-3.178-.182-.25-6.943-9.442-14.05-6.573-3.839 1.548-8.211-.308-9.761-4.15-1.549-3.841.309-8.211 4.15-9.761 7.669-3.095 16.017-1.85 23.505 3.502 5.036 3.6 8.102 7.889 8.435 8.367 2.371 3.396 1.539 8.072-1.857 10.442-1.308.913-2.805 1.351-4.287 1.351z" fill="#df9380" data-original="#DF9380" class="" style="fill:#DF9380"/><path d="m388.829 245.904c-1.494 0-3-.444-4.31-1.37-3.369-2.381-4.195-7.016-1.834-10.398.333-.478 3.399-4.767 8.435-8.367 7.487-5.353 15.834-6.595 23.505-3.502 3.841 1.55 5.699 5.92 4.15 9.761-1.55 3.841-5.919 5.698-9.761 4.15-7.169-2.893-13.985 6.483-14.053 6.578-1.468 2.05-3.784 3.148-6.132 3.148z" fill="#df9380" data-original="#DF9380" class="" style="fill:#DF9380"/><path d="m216.763 319.17h66.47v51.13h-66.47z" fill="#eaac9d" data-original="#EAAC9D" class="active-path" style="fill:#EBB7AA" data-old_color="#eaac9d"/><path d="m388.828 175.26v76.26c0 55.88-45.3 101.19-101.19 101.19h-75.29c-55.88 0-101.19-45.3-101.19-101.19v-75.39c17.23-.5 40.94-3.44 66.48-8.63 52.34-10.64 112.42-30.75 140.37-58.7 0 0 27.65 56.5 70.82 66.46z" fill="#ffcbbe" data-original="#FFCBBE" class="" data-old_color="#ffcbbe" style="fill:#F9D6CD"/><path d="m278.828 352.71h-66.48c-55.88 0-101.19-45.3-101.19-101.19v-75.39c17.23-.5 40.94-3.44 66.48-8.63v84.02c0 55.88 45.3 101.19 101.19 101.19z" fill="#eaac9d" data-original="#EAAC9D" class="active-path" style="fill:#EBB7AA" data-old_color="#eaac9d"/><g fill="#e490b7"><ellipse cx="331.781" cy="258.711" rx="22.726" ry="13.819" data-original="#E490B7" class=""/><ellipse cx="168.219" cy="258.711" rx="22.726" ry="13.819" data-original="#E490B7" class=""/></g><path d="m263.52 243.24h-27.039c-4.142 0-7.5-3.358-7.5-7.5s3.358-7.5 7.5-7.5h27.039c4.142 0 7.5 3.358 7.5 7.5s-3.358 7.5-7.5 7.5z" fill="#eaac9d" data-original="#EAAC9D" class="active-path" style="fill:#EBB7AA" data-old_color="#eaac9d"/><path d="m249.993 294.877c-14.542 0-27.589-8.662-33.241-22.066-1.609-3.816.18-8.215 3.997-9.824s8.215.181 9.824 3.997c3.303 7.833 10.925 12.894 19.419 12.894s16.117-5.061 19.419-12.894c1.609-3.817 6.008-5.607 9.824-3.997 3.817 1.609 5.606 6.008 3.997 9.824-5.649 13.405-18.697 22.066-33.239 22.066z" fill="#dd636e" data-original="#DD636E" class=""/><path d="m426.549 455.138v41.86h-80.11c-8.8 0-16.13-6.3-17.72-14.63-.22-1.11-.33-2.25-.33-3.42v-23.81z" fill="#e7ecf1" data-original="#E7ECF1" class="" style="fill:#4949E7" data-old_color="#e7ecf1"/><path d="m426.549 482.368v14.63h-80.11c-8.8 0-16.13-6.3-17.72-14.63z" fill="#c6d0da" data-original="#C6D0DA" class="" style="fill:#202095" data-old_color="#c6d0da"/><path d="m54.397 496.998h18.987l10.003-27.64-10.003-14.224h-50.79v10.061c0 17.564 14.238 31.803 31.803 31.803z" fill="#ffcbbe" data-original="#FFCBBE" class="" data-old_color="#ffcbbe" style="fill:#F9D6CD"/><path d="m22.597 455.138v10.06c0 17.56 14.24 31.8 31.8 31.8h18.987l10.003-14.63h-28.99c-16.01 0-29.26-11.83-31.47-27.23z" fill="#eaac9d" data-original="#EAAC9D" class="active-path" style="fill:#EBB7AA" data-old_color="#eaac9d"/><path d="m73.384 455.138v41.86h80.11c8.8 0 16.13-6.3 17.72-14.63.22-1.11.33-2.25.33-3.42v-23.81z" fill="#e7ecf1" data-original="#E7ECF1" class="" style="fill:#4949E7" data-old_color="#e7ecf1"/><path d="m171.544 464.168v14.78c0 1.17-.11 2.31-.33 3.42-1.59 8.33-8.92 14.63-17.72 14.63h-80.11v-14.78h80.11c8.8 0 16.13-6.3 17.72-14.63.22-1.11.33-2.25.33-3.42z" fill="#c6d0da" data-original="#C6D0DA" class="" style="fill:#202095" data-old_color="#c6d0da"/><g fill="#df9380"><path d="m312.779 240.355c-14.542 0-27.589-8.662-33.241-22.066-1.609-3.816.18-8.215 3.997-9.824 3.817-1.61 8.215.18 9.824 3.997 3.303 7.833 10.925 12.894 19.419 12.894s16.117-5.061 19.419-12.894c1.609-3.816 6.006-5.606 9.824-3.997 3.817 1.609 5.606 6.008 3.997 9.824-5.649 13.404-18.697 22.066-33.239 22.066z" data-original="#DF9380" class="" style="fill:#DF9380"/><path d="m187.207 240.355c-14.542 0-27.589-8.662-33.241-22.066-1.609-3.816.18-8.215 3.997-9.824 3.817-1.61 8.215.18 9.824 3.997 3.303 7.833 10.925 12.894 19.419 12.894s16.117-5.061 19.419-12.894c1.609-3.816 6.006-5.606 9.824-3.997 3.817 1.609 5.606 6.008 3.997 9.824-5.65 13.404-18.698 22.066-33.239 22.066z" data-original="#DF9380" class="" style="fill:#DF9380"/></g><g fill="#f4dd45"><path d="m448.722 46.846c4.142 0 7.5-3.358 7.5-7.5s-3.358-7.5-7.5-7.5h-16.443v-16.443c0-4.142-3.358-7.5-7.5-7.5s-7.5 3.358-7.5 7.5v16.443h-16.443c-4.142 0-7.5 3.358-7.5 7.5s3.358 7.5 7.5 7.5h16.443v16.444c0 4.142 3.358 7.5 7.5 7.5s7.5-3.358 7.5-7.5v-16.444z" data-original="#F4DD45" class="" style="fill:#F4DD45"/><path d="m56.372 162.571h-16.443v-16.443c0-4.142-3.358-7.5-7.5-7.5s-7.5 3.358-7.5 7.5v16.443h-16.444c-4.142 0-7.5 3.358-7.5 7.5s3.358 7.5 7.5 7.5h16.443v16.443c0 4.142 3.358 7.5 7.5 7.5s7.5-3.358 7.5-7.5v-16.443h16.443c4.142 0 7.5-3.358 7.5-7.5s-3.357-7.5-7.499-7.5z" data-original="#F4DD45" class="" style="fill:#F4DD45"/><path d="m488.513 340.813h-16.443v-16.443c0-4.142-3.358-7.5-7.5-7.5s-7.5 3.358-7.5 7.5v16.443h-16.443c-4.142 0-7.5 3.358-7.5 7.5s3.358 7.5 7.5 7.5h16.443v16.443c0 4.142 3.358 7.5 7.5 7.5s7.5-3.358 7.5-7.5v-16.443h16.443c4.142 0 7.5-3.358 7.5-7.5s-3.358-7.5-7.5-7.5z" data-original="#F4DD45" class="" style="fill:#F4DD45"/></g></g></g> </svg>
